<?xml version="1.0" encoding="utf-8"?>
<!-- Generator: Adobe Illustrator 23.0.1, SVG Export Plug-In . SVG Version: 6.00 Build 0)  -->
<svg version="1.1" id="Layer_1" xmlns="http://www.w3.org/2000/svg" xmlns:xlink="http://www.w3.org/1999/xlink" x="0px" y="0px"
	 viewBox="0 0 490.7 405.76" style="enable-background:new 0 0 490.7 405.76;" xml:space="preserve">
<style type="text/css">
	.st0{fill:#050606;}
</style>
<g>
	<path class="st0" d="M234.56,150.06c6.54,0,13.7-5.2,19.18-17.23c-0.26,13.29,5.35,19.62,13.2,19.62c3.93,0,8.33-1.73,14.25-7.08
		c3.38,13.99,10.05,20.15,17.8,20.29c16.63,0.29,27.79-25.94,27.79-47.29c0-2.04-0.14-3.91-0.39-5.64
		c24.03-3.23,56.28-30.19,80.68-30.19c5.13,0,9.27,1.34,12.29,3.91c1.1-0.34,2.54-2.79,2.54-5.57c0-2.87-1.08-5.5-3.73-7.26
		c-2.42-1.6-5.8-2.49-10.36-2.49c-25.89,0-60.92,32-83.54,34.36c-2.1-4.16-5.4-6.35-9.47-6.35c-0.32,0-0.6,0.04-0.89,0.07
		c14.05-26.57,25.13-57.86,25.13-81.34C339.06,3.95,334.1,0,328.14,0c-22.53,0-52.01,74.21-49.13,129.2
		c0.12,2.22,0.31,4.29,0.52,6.29c-0.42,0.44-0.84,0.9-1.24,1.31c-4.23,4.23-7.01,5.43-9.22,5.43c-3.09,0-5.65-2.77-5.65-10.8
		c0-7.96,1.62-17.95,5.12-26.57c-0.67-0.79-3.25-1.03-6.02-0.28c-3.16,0.86-4.67,3.17-6.18,7.44c-6.23,17.59-12.65,26.11-18.7,26.11
		c-3.28,0-5.62-2.53-5.62-10.9c0-20.54,15.05-47.77,24-47.77c2.14,0,3.62,1.99,3.62,6.28c0,5.13-2.04,11.72-4.51,15.85
		c0.13,0.83,2.66,1.43,4.9,0.78c2.29-0.67,3.74-2.04,5.44-4.84c2.43-3.99,4.1-9.83,4.1-14.95c0-7.93-4.02-12.26-10.49-12.26
		c-17.55,0-37.87,33.67-37.87,59.42C221.21,144.31,227.57,150.06,234.56,150.06z M318.08,112.65c2.12,17.91-7.32,42.21-17.8,42.21
		c-4.57,0-8.76-4.45-10.7-18.36c6.73-8.01,13.77-18.38,20.35-29.98C310.95,109.53,314.03,111.78,318.08,112.65z M325.37,10.53
		c2.09,0,3.38,1.62,3.38,7.74c0,30.35-21.87,79.31-40.2,105.77c-0.08-2.3-0.13-4.74-0.13-7.36
		C288.43,70.99,313.63,10.53,325.37,10.53z"/>
	<path class="st0" d="M222.51,165.93c1.67-4.75,1.69-8.81-0.01-10.81c-1.42-1.66-2.95-2.09-3.85-1.58
		c-0.02,0.01-0.03,0.02-0.05,0.03c-3.07,8.29-6.5,15.31-10.22,21.16c0.46,2.83,0.7,6.02,0.7,9.63c0,1.87-0.07,3.81-0.16,5.77
		C214.63,183.31,219.29,175.1,222.51,165.93z"/>
	<path class="st0" d="M103.66,325.67c-12.52,24.52-33.04,37.46-52.43,37.46c-23.24,0-39.11-15.77-39.11-57.12
		c0-58.35,40.93-124.66,72.11-124.66c8.05,0,13.59,6.79,13.59,23.02c0,21.53-11.45,42.78-21.7,42.78c-3.92,0-6.82-2.44-6.82-10.35
		c0-7.43,2.57-17.08,6.81-24.02c-0.45-1.02-2.81-1.42-5.42-0.7c-2.26,0.63-4.28,2.36-5.69,4.15c-4.48,5.64-7.47,16.12-7.47,23.86
		c0,12.6,6.58,18.36,15.99,18.36c16.67,0,35.71-26.23,35.71-57.19c0-19.84-8.23-30.01-22.86-30.01C43.81,171.25,0,248.18,0,310.31
		c0,43.96,19.66,65.14,49.02,65.14c21.19,0,44.13-12.6,56.26-35.65c2.91-5.53,3.44-9.47,2.04-11.91
		C106.2,325.93,104.55,325.23,103.66,325.67z"/>
	<path class="st0" d="M390.78,300.52c-6.32,5.69-10.4,14.57-10.4,23.46c0,11.66,6.76,17.96,16.78,17.96
		c20.49,0,38.69-27.67,38.69-53.89c0-19.19-10.28-28.33-25.75-28.33c-20.13,0-44.65,16.06-61.2,40.3
		c-58.84,19.41-133.57,70.88-180.57,70.88c-14.14,0-22.07-4.15-26.46-12.5c-1.73-0.24-4.52,2.47-4.52,6.92
		c0,8.26,9.68,16.31,30.12,16.31C227.95,381.64,332.16,298.03,390.78,300.52z M364.29,295.64c12.81-15.65,29.1-25.89,43.5-25.89
		c11.07,0,17.18,6.56,17.18,21.03c0,22.87-14.15,41.17-25.53,41.17c-5.02,0-8.78-3.39-8.78-10.71c0-7.31,3.39-15.28,9.57-21.08
		c0.48-0.88,0.01-2.98-1.67-4.45c-2.16-1.91-4.25-2.97-11.79-2.97C379.77,292.73,372.23,293.79,364.29,295.64z"/>
	<path class="st0" d="M487.71,166.71c-3.37,0-6.25,4.62-8.59,13.3c-1.67,6.21-2.85,13.33-3.9,21.16
		c-6.72,15.53-12.59,20.98-17.19,20.98c-3.47,0-5.71-2.34-5.71-10.9c-0.01-15.47,6.88-37.95,15.25-50.65
		c-0.18-0.58-1.2-0.99-2.57-0.99c-3.85,0-6.7,2.51-9.57,7.27c-7.48,12.42-12.32,31.66-13.2,43.88c-3.14,7.15-7.06,10.65-10.11,10.65
		c-2.36,0-4.24-1.82-4.24-8.01c0-6.23,2.15-15.55,5.12-22.36c-0.22-0.78-3.12-1.24-5.84-0.23c0.92-2.72,1.45-5.54,1.45-8.17
		c0-7.85-3.3-12.72-9.97-12.72c-17.4,0-35.07,29.24-35.07,54.63c0,14.69,6.21,20.72,13.32,20.72c7.73,0,16.55-6.64,22.71-25.6
		c0.38,7.3,3.73,11.87,9.09,11.87c5.02,0,10.08-3.67,13.88-10.69c1.53,8.79,6.39,12.29,12.18,12.29c6.4,0,13.63-5.2,18.63-17.23
		c-0.03,0.23-0.05,0.45-0.08,0.68c-5.63,47.73-11.22,116.64-49.44,154.86c-14.13,14.13-31.58,22.99-48.41,22.99
		c-22.42,0-33.85-13.37-33.85-38.71c0-15.93,4.87-31.59,12.45-45.11c-4.64,1.54-9.4,3.3-14.25,5.24
		c-6.06,12.94-9.77,27.35-9.77,42.41c0,31.58,17.78,47.47,42.25,47.47c21.27,0,40.59-9.78,57.39-26.58
		c43.94-43.94,45.35-110.83,53.61-177.09c4.11-11.56,7.38-23.08,7.38-29.97C490.7,168.35,489.59,166.71,487.71,166.71z
		 M400.04,234.07c-2.98,0-5.84-2.41-5.84-11.63c0-20.61,12.48-43.87,21.57-43.87c2.08,0,3.46,1.87,3.46,6.19
		c0,5.64-2.31,12.54-5.17,16.49c0.04,0.67,2.25,1.49,4.69,0.86c0.52-0.14,1.06-0.37,1.62-0.71
		C411.77,227.64,404.7,234.07,400.04,234.07z"/>
	<path class="st0" d="M157.79,307.78c5.58,12.76,14.21,16.81,21.75,16.81c13.79,0,27.11-10.72,38.45-26.56
		c3.17,2.4,6.71,3.57,10.36,3.57c10.17,0,20.03-7.25,27.58-26.92c2.84,6.63,7.75,9.15,13.37,9.15c14.84,0,25.99-21.18,27.13-44.78
		c4.08-0.12,7.62-1.81,10.55-5.82c-1,4.93-1.53,9.82-1.53,14.54c0,13.35,4.74,17.93,11.07,17.93c5.42,0,11.15-3.5,15.25-12.32
		c1.5,13.95,7.37,19.39,13.09,19.39c18.61,0,34.2-54.31,34.2-89.29c0-24.96-9.41-35.83-22.3-35.83c-5.39,0-9.78,1.77-12.35,4.06
		c-3.07,2.74-3.75,6.37-3.03,7.2c2.49-0.91,6.08-1.62,9.36-1.62c11.3,0,18.12,8.18,18.12,32.05c0,34.77-13.53,71.13-23.18,71.13
		c-4.21,0-7.88-6.74-6.92-24.34c3.57-10.38,5.96-19.53,5.96-24.5c0-4.1-1.28-5.66-2.94-5.66c-2.37,0-5.12,3.07-7.45,11.5
		c-1.53,5.55-2.55,14.75-2.85,22.97c-3.51,10.09-7.68,14.12-11.21,14.12c-3.2,0-5.26-2.89-5.26-10.8c0-12.16,4.41-29.95,12.22-42.35
		c-0.05-0.53-0.95-1.04-2.27-1.04c-3.69,0-6.33,2.48-8.45,6.49c-1.89,3.59-3.58,7.29-5.04,11.06
		c-4.01,10.43-10.22,13.54-15.02,13.51c-0.41-13.02-3.03-19.77-6.68-19.77c-2.69,0-5.35,4.27-5.35,11.55
		c0,5.82,1.78,10.28,4.56,12.97c-0.23,15.99-7.36,36.63-17.47,36.63c-4.23,0-7.73-4.48-7.73-15.83c0-17.54,7.72-38.71,18.71-50.76
		c-0.02-0.75-1.23-1.38-3.15-1.38c-3.44,0-6.17,1.86-8.46,4.4c-11.14,12.38-17.57,35.53-17.57,49.64c0,1.82,0.09,3.49,0.22,5.08
		c-8.02,19.65-15.62,26.84-23.15,26.84c-2.21,0-4.34-0.67-6.29-2.13c16.25-27.05,27.13-63.81,27.13-89.87
		c0-17.77-5-23.86-11.04-23.86c-16.5,0-34.81,48.76-34.81,85.89c0,13.74,2.61,23.77,6.68,30.45c-9.05,13.06-19.47,21.74-30.15,21.74
		c-6.42,0-12.29-4.07-16.03-13.9c20.63-25.67,40.08-77.13,40.08-114.77c0-16.05-4.55-21.75-11.21-21.75
		c-9.84,0-20.98,14.86-29.44,36.62c-16.49-1.89-28.91-17.11-28.91-51.9c0-55.19,38.88-115.8,70.07-115.8
		c8.16,0,13.6,6.82,13.6,21.96c0,21.88-11.6,43.48-22,43.48c-3.78,0-6.49-2.66-6.49-10.88c0-4.88,0.82-9.74,2.6-14.55
		c6.4-6.03,10.88-13.47,10.88-17.21c0-1.49-0.7-2.38-2.26-2.38c-3.97,0-10.8,6.64-15.83,15.86c-8.46,4.51-18.64,8-29.55,11
		c-1.59,2.98-3.1,6.07-4.53,9.25c11.01-2.94,21.37-6.15,29.77-10.15c-1.25,4.02-2.01,8.22-2.01,12.37
		c0,12.84,6.21,18.31,15.13,18.33c16.67,0.03,35.71-26.2,35.71-57.14c0-21.04-9.52-29.85-22.83-29.85
		c-25.81,0-51.99,27.09-68.21,61.46c-39.42,9.3-80.95,16.41-80.95,45.17c0,6.79,2.34,11.56,5.47,14.21
		c2.76,2.34,5.64,2.98,8.47,2.49c1.87-0.32,3.54-1.46,3.64-2.24c-3.76-2.76-6.16-7.1-6.16-13.56c0-20.77,32.7-28.8,65.51-36.92
		c-7.61,18.77-12.19,39.09-12.19,58.04c0,42.86,19.89,60.78,43.5,60.78c9.39,0,18.38-2.85,26.41-7.91
		c-4.36,28.88-17.69,65.01-31.05,85.36c-0.91-5.32-1.42-11.61-1.42-19c0-19.89,3.27-39.06,7.8-54.98c-0.58,0.02-1.16,0.04-1.75,0.04
		c-2.58,0-5.07-0.19-7.46-0.56c-5.1,17.44-8.4,37.55-8.4,57.45c0,11.29,1.1,20.31,2.93,27.51c-3.49,3.43-6.85,5.38-9.91,5.38
		c-4.37,0-8.39-4.26-8.39-16.88c0-7.06,1.43-15.14,4.16-22.01c-0.14-0.79-3.22-1.35-6.02-0.36c-2.88,1.03-4.8,3.48-6,7.5
		c-7.44,24.87-15.77,32.47-21.09,32.47c-3.64,0-6.61-3.07-6.61-12.88c0-23.1,17.71-53.01,25.64-53.01c2.36,0,3.8,2.03,3.81,6.86
		c0,5.02-1.71,11.21-3.99,15.17c0.15,0.83,2.7,1.43,4.93,0.78c2.27-0.67,3.69-2.04,5.32-4.83c2.23-3.82,3.81-9.34,3.82-14.3
		c0-8.25-4.14-12.88-10.8-12.88c-17.57,0-39.58,36.69-39.58,65.02c0,15.49,6.7,22.45,14.79,22.45c7.22,0,15.85-6.97,22.18-21.46
		c0.34,13.37,6.83,19.06,15.53,19.06C147.4,315.07,152.55,312.42,157.79,307.78z M237.22,186.84c2.41,0,3.75,3.09,3.75,13.51
		c0,23.46-9.04,56.23-22.38,80.39c-2.09-5.26-3.38-12.79-3.38-23.14C215.2,226.87,229.75,186.84,237.22,186.84z M174.69,199.04
		c6.07-15.56,12.92-25.43,17.37-25.43c2.23,0,3.59,2.49,3.59,11.86c0,1.36-0.03,2.76-0.1,4.19
		C189.03,195.05,182,198.04,174.69,199.04z"/>
</g>
</svg>
